<svg width="24" height="24" viewBox="0 0 24 24" fill="none" xmlns="http://www.w3.org/2000/svg">
<path d="M12.0576 20C9.83495 20 7.94595 19.2223 6.39062 17.667C4.83528 16.111 4.05762 14.222 4.05762 12C4.05762 9.97465 4.71762 8.21798 6.03762 6.72998C7.35895 5.24332 8.99362 4.36565 10.9416 4.09698C10.9956 4.09698 11.0486 4.09898 11.1006 4.10298C11.1526 4.10698 11.2036 4.11265 11.2536 4.11998C10.9163 4.59065 10.6493 5.11398 10.4526 5.68998C10.256 6.26665 10.1576 6.87032 10.1576 7.50098C10.1576 9.27898 10.7796 10.79 12.0236 12.034C13.2683 13.2787 14.7796 13.901 16.5576 13.901C17.1923 13.901 17.7966 13.8027 18.3706 13.606C18.9453 13.4093 19.4613 13.1423 19.9186 12.805C19.9266 12.855 19.9326 12.906 19.9366 12.958C19.94 13.01 19.9416 13.0627 19.9416 13.116C19.6856 15.0647 18.8139 16.6993 17.3266 18.02C15.8393 19.3407 14.0836 20.0007 12.0576 20ZM12.0566 19C13.5233 19 14.8399 18.5957 16.0066 17.787C17.1733 16.9783 18.0233 15.9243 18.5566 14.625C18.2233 14.7083 17.8899 14.775 17.5566 14.825C17.2233 14.875 16.8899 14.9 16.5566 14.9C14.5073 14.9 12.7616 14.1793 11.3196 12.738C9.87762 11.2967 9.15695 9.55065 9.15762 7.49998C9.15762 7.16665 9.18262 6.83332 9.23262 6.49998C9.28262 6.16665 9.34928 5.83332 9.43262 5.49998C8.13262 6.03332 7.07828 6.88332 6.26962 8.04998C5.46095 9.21665 5.05695 10.5333 5.05762 12C5.05762 13.9333 5.74095 15.5833 7.10762 16.95C8.47428 18.3167 10.1233 19 12.0566 19Z" fill="black"/>
</svg>
