<svg width="24" height="24" viewBox="0 0 24 24" fill="none" xmlns="http://www.w3.org/2000/svg">
<path fill-rule="evenodd" clip-rule="evenodd" d="M14.3851 15.446C13.0371 16.5231 11.3278 17.0432 9.60827 16.8994C7.88877 16.7555 6.28961 15.9588 5.13922 14.6727C3.98883 13.3867 3.37455 11.7089 3.42254 9.98409C3.47052 8.25926 4.17713 6.61827 5.39725 5.39816C6.61736 4.17805 8.25835 3.47144 9.98318 3.42345C11.708 3.37546 13.3857 3.98975 14.6718 5.14014C15.9579 6.29052 16.7546 7.88969 16.8984 9.60918C17.0422 11.3287 16.5222 13.038 15.4451 14.386L20.6011 19.541C20.6748 19.6097 20.7339 19.6925 20.7749 19.7845C20.8159 19.8765 20.8379 19.9758 20.8397 20.0765C20.8415 20.1772 20.8229 20.2772 20.7852 20.3706C20.7475 20.464 20.6913 20.5488 20.6201 20.62C20.5489 20.6913 20.4641 20.7474 20.3707 20.7851C20.2773 20.8228 20.1773 20.8414 20.0766 20.8396C19.9759 20.8378 19.8766 20.8158 19.7846 20.7748C19.6926 20.7338 19.6098 20.6747 19.5411 20.601L14.3851 15.446ZM6.46009 13.884C5.72613 13.15 5.22624 12.2148 5.0236 11.1968C4.82096 10.1787 4.92466 9.12344 5.3216 8.1643C5.71854 7.20517 6.3909 6.38523 7.2537 5.80811C8.11651 5.23098 9.13103 4.92259 10.1691 4.92189C11.2071 4.92119 12.222 5.22822 13.0856 5.80418C13.9492 6.38014 14.6226 7.19918 15.0209 8.15778C15.4191 9.11638 15.5242 10.1715 15.323 11.1898C15.1217 12.2082 14.6231 13.144 13.8901 13.879L13.8851 13.884L13.8801 13.888C12.8952 14.8706 11.5605 15.4221 10.1693 15.4214C8.77801 15.4206 7.44394 14.8677 6.46009 13.884Z" fill="black"/>
</svg>
